#Comment line ignore any data following # character 
#Hierarchical Translation and Rotation (.htr) file 
[Header]	
#Header keywords are followed by a single value 
FileType HTR		#Single word string
DataType HTRS		#Translation followed by rotation and scale data
FileVersion 1		#integer
NumSegments 84		#integer
NumFrames 2		#integer
DataFrameRate 30		#integer, data frame rate in this file
EulerRotationOrder ZYX
CalibrationUnits mm
RotationUnits Degrees
GlobalAxisofGravity Y
BoneLengthAxis Y
ScaleFactor 1.00
[SegmentNames&Hierarchy]
#CHILD	PARENT
MASTER GLOBAL
root MASTER
chest root
L_mid_tent01 root
R_mid_tent01 root
spine01 root
Bip01_Neck chest
L_humerus chest
R_humerus chest
weapon_bone chest
Bip01_Head Bip01_Neck
eye_left_bone Bip01_Head
eye_right_bone Bip01_Head
L_forearm L_humerus
L_front_hand L_forearm
L_weapon_bone L_forearm
L_front_hand01_01 L_front_hand
L_front_hand02_01 L_front_hand
L_front_hand03_01 L_front_hand
L_front_hand01_02 L_front_hand01_01
L_front_hand02_02 L_front_hand02_01
L_front_hand03_02 L_front_hand03_01
R_forearm R_humerus
R_front_hand R_forearm
R_weapon_bone R_forearm
R_front_hand01_01 R_front_hand
R_front_hand02_01 R_front_hand
R_front_hand03_01 R_front_hand
R_front_hand01_02 R_front_hand01_01
R_front_hand02_02 R_front_hand02_01
R_front_hand03_02 R_front_hand03_01
null_rope01_connect L_mid_tent01
Rope1_Seg01 null_rope01_connect
Rope1_Seg02 Rope1_Seg01
Rope1_Seg03 Rope1_Seg02
Rope1_Seg04 Rope1_Seg03
Rope1_Seg05 Rope1_Seg04
Rope1_Seg06 Rope1_Seg05
Rope1_Seg07 Rope1_Seg06
Rope1_Seg09 Rope1_Seg07
L_mid_hand01 Rope1_Seg09
L_mid_hand02 Rope1_Seg09
L_mid_hand03 Rope1_Seg09
null_rope02_connect R_mid_tent01
Rope2_Seg01 null_rope02_connect
Rope2_Seg02 Rope2_Seg01
Rope2_Seg03 Rope2_Seg02
Rope2_Seg04 Rope2_Seg03
Rope2_Seg05 Rope2_Seg04
Rope2_Seg06 Rope2_Seg05
Rope2_Seg07 Rope2_Seg06
Rope2_Seg09 Rope2_Seg07
R_mid_hand01 Rope2_Seg09
R_mid_hand02 Rope2_Seg09
R_mid_hand03 Rope2_Seg09
spine02 spine01
spine03 spine02
pelvis spine03
null_rope03_connect pelvis
null_rope04_connect pelvis
Rope3_Seg01 null_rope03_connect
Rope3_Seg02 Rope3_Seg01
Rope3_Seg03 Rope3_Seg02
Rope3_Seg04 Rope3_Seg03
Rope3_Seg05 Rope3_Seg04
Rope3_Seg06 Rope3_Seg05
Rope3_Seg07 Rope3_Seg06
Rope3_Seg08 Rope3_Seg07
Rope3_Seg09 Rope3_Seg08
R_rear_hand01 Rope3_Seg09
R_rear_hand02 Rope3_Seg09
R_rear_hand03 Rope3_Seg09
Rope4_Seg01 null_rope04_connect
Rope4_Seg02 Rope4_Seg01
Rope4_Seg03 Rope4_Seg02
Rope4_Seg04 Rope4_Seg03
Rope4_Seg05 Rope4_Seg04
Rope4_Seg06 Rope4_Seg05
Rope4_Seg07 Rope4_Seg06
Rope4_Seg08 Rope4_Seg07
Rope4_Seg09 Rope4_Seg08
L_rear_hand01 Rope4_Seg09
L_rear_hand02 Rope4_Seg09
L_rear_hand03 Rope4_Seg09
[BasePosition]
#SegmentName Tx, Ty, Tz, Rx, Ry, Rz, BoneLength
MASTER 0.000000 0.000000 0.000000 -90.000000 0.000000 0.000000 10.000000 
root 0.000000 0.000000 0.000000 0.000000 0.000000 0.000000 10.000000 
chest 0.000000 0.000000 0.000000 0.000000 0.000000 0.000000 10.000000 
L_mid_tent01 0.000000 0.000000 0.000000 0.000000 0.000000 0.000000 10.000000 
R_mid_tent01 0.000000 0.000000 0.000000 0.000000 0.000000 0.000000 10.000000 
spine01 0.000000 0.000000 0.000000 0.000000 0.000000 0.000000 10.000000 
Bip01_Neck 0.000000 0.000000 0.000000 0.000000 0.000000 0.000000 10.000000 
L_humerus 0.000000 0.000000 0.000000 0.000000 0.000000 0.000000 10.000000 
R_humerus 0.000000 0.000000 0.000000 0.000000 0.000000 0.000000 10.000000 
weapon_bone 0.000000 0.000000 0.000000 0.000000 0.000000 0.000000 10.000000 
Bip01_Head 0.000000 0.000000 0.000000 0.000000 0.000000 0.000000 10.000000 
eye_left_bone 0.000000 0.000000 0.000000 0.000000 0.000000 0.000000 10.000000 
eye_right_bone 0.000000 0.000000 0.000000 0.000000 0.000000 0.000000 10.000000 
L_forearm 0.000000 0.000000 0.000000 0.000000 0.000000 0.000000 10.000000 
L_front_hand 0.000000 0.000000 0.000000 0.000000 0.000000 0.000000 10.000000 
L_weapon_bone 0.000000 0.000000 0.000000 0.000000 0.000000 0.000000 10.000000 
L_front_hand01_01 0.000000 0.000000 0.000000 0.000000 0.000000 0.000000 10.000000 
L_front_hand02_01 0.000000 0.000000 0.000000 0.000000 0.000000 0.000000 10.000000 
L_front_hand03_01 0.000000 0.000000 0.000000 0.000000 0.000000 0.000000 10.000000 
L_front_hand01_02 0.000000 0.000000 0.000000 0.000000 0.000000 0.000000 10.000000 
L_front_hand02_02 0.000000 0.000000 0.000000 0.000000 0.000000 0.000000 10.000000 
L_front_hand03_02 0.000000 0.000000 0.000000 0.000000 0.000000 0.000000 10.000000 
R_forearm 0.000000 0.000000 0.000000 0.000000 0.000000 0.000000 10.000000 
R_front_hand 0.000000 0.000000 0.000000 0.000000 0.000000 0.000000 10.000000 
R_weapon_bone 0.000000 0.000000 0.000000 0.000000 0.000000 0.000000 10.000000 
R_front_hand01_01 0.000000 0.000000 0.000000 0.000000 0.000000 0.000000 10.000000 
R_front_hand02_01 0.000000 0.000000 0.000000 0.000000 0.000000 0.000000 10.000000 
R_front_hand03_01 0.000000 0.000000 0.000000 0.000000 0.000000 0.000000 10.000000 
R_front_hand01_02 0.000000 0.000000 0.000000 0.000000 0.000000 0.000000 10.000000 
R_front_hand02_02 0.000000 0.000000 0.000000 0.000000 0.000000 0.000000 10.000000 
R_front_hand03_02 0.000000 0.000000 0.000000 0.000000 0.000000 0.000000 10.000000 
null_rope01_connect 0.000000 0.000000 0.000000 0.000000 0.000000 0.000000 10.000000 
Rope1_Seg01 0.000000 0.000000 0.000000 0.000000 0.000000 0.000000 10.000000 
Rope1_Seg02 0.000000 0.000000 0.000000 0.000000 0.000000 0.000000 10.000000 
Rope1_Seg03 0.000000 0.000000 0.000000 0.000000 0.000000 0.000000 10.000000 
Rope1_Seg04 0.000000 0.000000 0.000000 0.000000 0.000000 0.000000 10.000000 
Rope1_Seg05 0.000000 0.000000 0.000000 0.000000 0.000000 0.000000 10.000000 
Rope1_Seg06 0.000000 0.000000 0.000000 0.000000 0.000000 0.000000 10.000000 
Rope1_Seg07 0.000000 0.000000 0.000000 0.000000 0.000000 0.000000 10.000000 
Rope1_Seg09 0.000000 0.000000 0.000000 0.000000 0.000000 0.000000 10.000000 
L_mid_hand01 0.000000 0.000000 0.000000 0.000000 0.000000 0.000000 10.000000 
L_mid_hand02 0.000000 0.000000 0.000000 0.000000 0.000000 0.000000 10.000000 
L_mid_hand03 0.000000 0.000000 0.000000 0.000000 0.000000 0.000000 10.000000 
null_rope02_connect 0.000000 0.000000 0.000000 0.000000 0.000000 0.000000 10.000000 
Rope2_Seg01 0.000000 0.000000 0.000000 0.000000 0.000000 0.000000 10.000000 
Rope2_Seg02 0.000000 0.000000 0.000000 0.000000 0.000000 0.000000 10.000000 
Rope2_Seg03 0.000000 0.000000 0.000000 0.000000 0.000000 0.000000 10.000000 
Rope2_Seg04 0.000000 0.000000 0.000000 0.000000 0.000000 0.000000 10.000000 
Rope2_Seg05 0.000000 0.000000 0.000000 0.000000 0.000000 0.000000 10.000000 
Rope2_Seg06 0.000000 0.000000 0.000000 0.000000 0.000000 0.000000 10.000000 
Rope2_Seg07 0.000000 0.000000 0.000000 0.000000 0.000000 0.000000 10.000000 
Rope2_Seg09 0.000000 0.000000 0.000000 0.000000 0.000000 0.000000 10.000000 
R_mid_hand01 0.000000 0.000000 0.000000 0.000000 0.000000 0.000000 10.000000 
R_mid_hand02 0.000000 0.000000 0.000000 0.000000 0.000000 0.000000 10.000000 
R_mid_hand03 0.000000 0.000000 0.000000 0.000000 0.000000 0.000000 10.000000 
spine02 0.000000 0.000000 0.000000 0.000000 0.000000 0.000000 10.000000 
spine03 0.000000 0.000000 0.000000 0.000000 0.000000 0.000000 10.000000 
pelvis 0.000000 0.000000 0.000000 0.000000 0.000000 0.000000 10.000000 
null_rope03_connect 0.000000 0.000000 0.000000 0.000000 0.000000 0.000000 10.000000 
null_rope04_connect 0.000000 0.000000 0.000000 0.000000 0.000000 0.000000 10.000000 
Rope3_Seg01 0.000000 0.000000 0.000000 0.000000 0.000000 0.000000 10.000000 
Rope3_Seg02 0.000000 0.000000 0.000000 0.000000 0.000000 0.000000 10.000000 
Rope3_Seg03 0.000000 0.000000 0.000000 0.000000 0.000000 0.000000 10.000000 
Rope3_Seg04 0.000000 0.000000 0.000000 0.000000 0.000000 0.000000 10.000000 
Rope3_Seg05 0.000000 0.000000 0.000000 0.000000 0.000000 0.000000 10.000000 
Rope3_Seg06 0.000000 0.000000 0.000000 0.000000 0.000000 0.000000 10.000000 
Rope3_Seg07 0.000000 0.000000 0.000000 0.000000 0.000000 0.000000 10.000000 
Rope3_Seg08 0.000000 0.000000 0.000000 0.000000 0.000000 0.000000 10.000000 
Rope3_Seg09 0.000000 0.000000 0.000000 0.000000 0.000000 0.000000 10.000000 
R_rear_hand01 0.000000 0.000000 0.000000 0.000000 0.000000 0.000000 10.000000 
R_rear_hand02 0.000000 0.000000 0.000000 0.000000 0.000000 0.000000 10.000000 
R_rear_hand03 0.000000 0.000000 0.000000 0.000000 0.000000 0.000000 10.000000 
Rope4_Seg01 0.000000 0.000000 0.000000 0.000000 0.000000 0.000000 10.000000 
Rope4_Seg02 0.000000 0.000000 0.000000 0.000000 0.000000 0.000000 10.000000 
Rope4_Seg03 0.000000 0.000000 0.000000 0.000000 0.000000 0.000000 10.000000 
Rope4_Seg04 0.000000 0.000000 0.000000 0.000000 0.000000 0.000000 10.000000 
Rope4_Seg05 0.000000 0.000000 0.000000 0.000000 0.000000 0.000000 10.000000 
Rope4_Seg06 0.000000 0.000000 0.000000 0.000000 0.000000 0.000000 10.000000 
Rope4_Seg07 0.000000 0.000000 0.000000 0.000000 0.000000 0.000000 10.000000 
Rope4_Seg08 0.000000 0.000000 0.000000 0.000000 0.000000 0.000000 10.000000 
Rope4_Seg09 0.000000 0.000000 0.000000 0.000000 0.000000 0.000000 10.000000 
L_rear_hand01 0.000000 0.000000 0.000000 0.000000 0.000000 0.000000 10.000000 
L_rear_hand02 0.000000 0.000000 0.000000 0.000000 0.000000 0.000000 10.000000 
L_rear_hand03 0.000000 0.000000 0.000000 0.000000 0.000000 0.000000 10.000000 
#Beginning of Data. Separated by tabs
#Fr	Tx	Ty	Tz	Rx	Ry	Rz	SF
[MASTER]
13 -0.000207 1386.450195 2099.187500 0.001660 0.001660 0.001660 2515.717041
14 -0.000232 1542.652344 2352.879150 0.001660 0.001660 0.001660 2813.506104
[root]
13 -34.209488 82.100830 1281.833252 -83.885696 11.199949 -93.118988 1284.915283
14 -35.406857 43.066730 1349.029907 -83.738670 11.631603 -93.160751 1350.181519
[chest]
13 -84.512650 -34.090519 0.000000 -1.389533 0.309329 -158.749191 91.129311
14 -84.512650 -34.090519 0.000000 -1.411909 0.386202 -160.132507 91.129311
[L_mid_tent01]
13 27.299046 22.179060 -249.918671 3.325118 14.915477 80.934853 252.381638
14 27.299042 22.179056 -249.918671 2.588524 17.968885 80.116241 252.381638
[R_mid_tent01]
13 23.228794 24.509907 226.238495 161.281693 -10.840481 83.199768 228.744751
14 23.228794 24.509907 226.238495 159.662109 -16.312254 86.369392 228.744751
[spine01]
13 -0.361383 -0.195265 0.000000 0.002098 0.001052 36.736134 0.410763
14 -0.361383 -0.195265 0.000000 0.002105 0.001039 37.445602 0.410763
[Bip01_Neck]
13 165.484543 71.581718 0.000119 176.643677 -1.657967 43.431911 180.302734
14 165.484543 71.581718 0.000119 176.643677 -1.657967 43.431911 180.302734
[L_humerus]
13 -13.983130 -135.272980 -120.471481 169.038528 32.642513 -123.362190 181.680161
14 -13.983130 -135.272980 -120.471481 170.425735 26.967810 -123.686287 181.680161
[R_humerus]
13 -13.983309 -135.273102 125.287651 -166.783615 -28.388100 -122.041359 184.909012
14 -13.983309 -135.273102 125.287651 -167.865814 -22.421724 -122.952232 184.909012
[weapon_bone]
13 235.964890 -300.705902 0.000000 0.000000 -89.951546 -128.212341 382.234833
14 235.964890 -300.705902 0.000000 0.000000 -89.951546 -128.212341 382.234833
[Bip01_Head]
13 213.649582 185.146088 19.126720 4.972661 4.781317 -43.887043 283.356750
14 213.674011 185.076675 20.027445 4.962489 2.797829 -43.898743 283.392059
[eye_left_bone]
13 -24.626970 125.451866 -64.772606 0.000000 -90.000000 -99.840431 143.318359
14 -24.626970 125.451866 -64.772606 0.000000 -90.000000 -99.840431 143.318359
[eye_right_bone]
13 -24.626970 125.451866 64.327362 0.000000 -89.972023 80.156380 143.117676
14 -24.626970 125.451866 64.327362 0.000000 -89.965736 80.156380 143.117676
[L_forearm]
13 322.776093 0.000000 -0.000119 0.000432 -0.002307 -111.188736 322.776093
14 322.776093 0.000000 -0.000119 0.000432 -0.002307 -111.203720 322.776093
[L_front_hand]
13 241.149185 -0.042021 -3.300071 -178.667953 -1.835447 -27.422350 241.171753
14 241.149185 -0.042021 -3.300071 -178.667953 -1.835447 -27.422350 241.171753
[L_weapon_bone]
13 156.183838 0.000000 0.000000 0.000014 0.000007 0.000001 156.183838
14 156.183838 0.000000 0.000000 0.000014 0.000007 0.000001 156.183838
[L_front_hand01_01]
13 86.095154 20.947098 -0.655860 -0.273295 -0.533469 64.985298 88.609184
14 86.095154 20.947098 -0.655860 -0.273650 -0.533287 65.061531 88.609184
[L_front_hand02_01]
13 86.935165 -11.437475 24.513514 140.772385 -54.262844 -45.183468 91.046425
14 86.935165 -11.437475 24.513514 140.858582 -54.305305 -45.287018 91.046425
[L_front_hand03_01]
13 86.637497 -14.123976 -20.424902 -141.183044 52.494118 -47.265888 90.126129
14 86.637497 -14.123976 -20.424902 -141.258987 52.537949 -47.363300 90.126129
[L_front_hand01_02]
13 71.020905 -0.000179 0.000030 0.000315 -0.002326 -105.414528 71.020905
14 71.020905 -0.000179 0.000030 0.000315 -0.002326 -105.409866 71.020905
[L_front_hand02_02]
13 71.020927 -0.000119 0.000060 0.000315 -0.002326 -105.414528 71.020927
14 71.020927 -0.000119 0.000060 0.000315 -0.002326 -105.409866 71.020927
[L_front_hand03_02]
13 71.020905 -0.000060 0.000060 0.000315 -0.002326 -105.414528 71.020905
14 71.020905 -0.000060 0.000060 0.000315 -0.002326 -105.409866 71.020905
[R_forearm]
13 322.776428 -0.000060 0.000030 0.201062 0.068300 -109.849342 322.776428
14 322.776428 -0.000060 0.000030 0.201052 0.068332 -109.867470 322.776428
[R_front_hand]
13 238.847015 -0.006795 2.210259 -2.635298 -10.645461 -26.312506 238.857239
14 238.847015 -0.006795 2.210259 -2.635298 -10.645461 -26.312506 238.857239
[R_weapon_bone]
13 155.664093 0.002503 -0.000030 0.003487 0.001180 -90.988930 155.664078
14 155.664093 0.002503 -0.000030 0.003487 0.001180 -90.988930 155.664078
[R_front_hand01_01]
13 87.624611 14.231146 22.918642 -139.406311 -53.422413 43.599293 91.683487
14 87.624611 14.231146 22.918642 -138.707092 -52.961746 42.720669 91.683487
[R_front_hand02_01]
13 89.356956 14.367283 -19.491137 140.210251 51.852013 46.267590 92.579636
14 89.356956 14.367283 -19.491137 139.537384 51.404167 45.405891 92.579636
[R_front_hand03_01]
13 87.286232 -22.307278 -0.143439 0.071981 -0.448622 -63.915920 90.091743
14 87.286232 -22.307278 -0.143439 0.065057 -0.451640 -63.223503 90.091743
[R_front_hand01_02]
13 71.020905 0.000060 0.000119 0.002323 -0.000334 106.381714 71.020905
14 71.020905 0.000060 0.000119 0.002323 -0.000334 106.381714 71.020905
[R_front_hand02_02]
13 71.020844 -0.000030 -0.000119 0.002323 -0.000334 106.381714 71.020836
14 71.020844 -0.000030 -0.000119 0.002323 -0.000334 106.381714 71.020836
[R_front_hand03_02]
13 71.020905 0.000000 0.000030 0.002323 -0.000334 106.381714 71.020905
14 71.020905 0.000000 0.000030 0.002323 -0.000334 106.381714 71.020905
[null_rope01_connect]
13 328.732483 0.000000 -0.000238 -142.076035 -78.534630 139.824127 328.732483
14 328.732483 0.000000 -0.000238 -151.749435 -76.466507 149.767807 328.732483
[Rope1_Seg01]
13 0.000012 -0.000120 -0.000094 -58.944656 81.171898 -51.334721 0.000153
14 0.000013 -0.000127 -0.000102 -65.884064 84.298302 -56.693371 0.000163
[Rope1_Seg02]
13 139.999863 -0.000179 0.000000 0.898047 -0.746872 -1.685872 139.999863
14 139.999863 -0.000179 0.000000 1.310142 -1.543429 -2.019405 139.999863
[Rope1_Seg03]
13 139.999924 0.000060 -0.000060 1.202446 -0.989986 -2.140641 139.999924
14 139.999924 0.000060 -0.000060 1.619770 -1.908915 -2.390097 139.999924
[Rope1_Seg04]
13 139.999924 -0.000060 -0.000119 -0.257291 1.409141 -0.946217 139.999924
14 139.999924 -0.000060 -0.000119 -0.506549 1.164458 0.120161 139.999924
[Rope1_Seg05]
13 139.999832 0.000119 -0.000060 3.315944 -2.611933 -4.836305 139.999832
14 139.999832 0.000119 -0.000060 4.903561 -5.803097 -6.083419 139.999832
[Rope1_Seg06]
13 139.999954 0.000119 -0.000060 13.384633 -15.896531 -12.220475 139.999954
14 139.999954 0.000119 -0.000060 12.007226 -15.772960 -12.521768 139.999954
[Rope1_Seg07]
13 139.999985 0.000060 0.000000 5.128039 -9.018020 -4.237450 139.999985
14 139.999985 0.000060 0.000000 4.673242 -8.868408 -4.656344 139.999985
[Rope1_Seg09]
13 121.602913 0.000119 -0.000089 -89.793175 -1.359789 0.847147 121.602913
14 121.602913 0.000119 -0.000089 -89.793175 -1.359789 0.847147 121.602913
[L_mid_hand01]
13 103.859421 1.038730 8.195221 112.987701 -50.601227 -18.681456 104.187431
14 103.859421 1.038730 8.195221 115.405037 -54.702587 -21.718954 104.187431
[L_mid_hand02]
13 105.572853 -4.139662 -10.864139 -153.018723 36.866009 -49.082401 106.211075
14 105.572853 -4.139662 -10.864139 -156.173569 38.796780 -54.226383 106.211075
[L_mid_hand03]
13 104.641464 17.579376 -3.913581 -11.755013 14.733717 54.618225 106.179977
14 104.641464 17.579376 -3.913581 -10.557021 15.605448 59.191418 106.179977
[null_rope02_connect]
13 328.732849 0.000179 -0.000119 -141.533051 67.579330 39.510349 328.732849
14 328.732849 0.000179 -0.000119 -149.305588 61.984760 33.869015 328.732849
[Rope2_Seg01]
13 0.000088 -0.000015 0.000000 -82.103386 54.729546 14.559593 0.000089
14 0.000089 -0.000025 0.000000 -80.728462 45.653736 8.746508 0.000093
[Rope2_Seg02]
13 139.999741 -0.000060 -0.000119 -6.409318 3.848045 9.372726 139.999756
14 139.999741 -0.000060 -0.000119 -9.409192 3.937235 11.595900 139.999756
[Rope2_Seg03]
13 140.000107 0.000030 0.000000 -6.132361 3.024911 9.825641 140.000107
14 140.000107 0.000030 0.000000 -9.304348 2.403987 13.912066 140.000107
[Rope2_Seg04]
13 139.999802 0.000000 -0.000060 -5.079958 2.385659 8.837618 139.999802
14 139.999802 0.000000 -0.000060 -7.337262 0.537069 14.042678 139.999802
[Rope2_Seg05]
13 139.999985 -0.000060 0.000119 -3.845766 -1.087430 8.637176 139.999985
14 139.999985 -0.000060 0.000119 -3.181486 -2.558754 8.557837 139.999985
[Rope2_Seg06]
13 139.999893 -0.000030 -0.000119 -3.149209 -4.088741 10.022908 139.999893
14 139.999893 -0.000030 -0.000119 -1.400097 -3.876369 5.693050 139.999893
[Rope2_Seg07]
13 139.999893 0.000060 -0.000060 -1.856751 -3.318683 8.802844 139.999893
14 139.999893 0.000060 -0.000060 -1.087857 -2.965048 5.726806 139.999893
[Rope2_Seg09]
13 121.338966 0.000089 -0.000060 33.793236 -1.359788 -0.847141 121.338966
14 121.338966 0.000089 -0.000060 33.793236 -1.359788 -0.847141 121.338966
[R_mid_hand01]
13 104.680779 11.144459 -10.335981 -37.204079 31.906813 37.576260 105.778534
14 104.680779 11.144459 -10.335981 -36.578453 32.644405 38.740585 105.778534
[R_mid_hand02]
13 104.070427 2.443552 8.231699 70.367462 -42.427391 14.067809 104.424065
14 104.070427 2.443552 8.231699 69.973358 -43.581707 14.639651 104.424065
[R_mid_hand03]
13 106.028137 -11.221827 -5.996406 -169.893616 12.226661 -47.211018 106.788818
14 106.028137 -11.221827 -5.996406 -170.161224 12.441350 -48.449898 106.788818
[spine02]
13 129.756927 0.001550 0.000119 -1.198635 -3.881227 9.321511 129.756927
14 129.756927 0.001550 0.000119 -1.167476 -3.887374 8.838979 129.756927
[spine03]
13 78.614105 0.081576 -4.899015 2.000588 3.776311 18.077328 78.766647
14 78.614105 0.081584 -4.899015 2.000588 3.776311 18.077328 78.766647
[pelvis]
13 169.435242 0.051022 0.000000 -0.070433 -0.177696 17.333202 169.435257
14 169.435242 0.051022 0.000000 -0.070456 -0.177686 17.348211 169.435257
[null_rope03_connect]
13 -1.257226 -2.466202 137.391083 -35.438610 -83.061523 33.065380 137.418976
14 -1.257226 -2.466202 137.391083 -35.558521 -82.852654 32.501583 137.418976
[null_rope04_connect]
13 -1.259640 -2.480268 -137.844437 -35.438610 -83.061523 33.065380 137.872513
14 -1.259640 -2.480268 -137.844437 -35.558521 -82.852654 32.501583 137.872513
[Rope3_Seg01]
13 -0.000029 -0.000026 0.000094 -134.241608 57.199490 -73.271309 0.000102
14 -0.000029 -0.000025 0.000102 -129.843079 57.537212 -67.829247 0.000109
[Rope3_Seg02]
13 139.999924 -0.000119 0.000060 -0.679716 -2.442415 2.484843 139.999924
14 139.999924 -0.000119 0.000060 -0.441013 -2.101903 2.285312 139.999924
[Rope3_Seg03]
13 139.999924 -0.000119 0.000119 -0.633679 -2.192650 2.175607 139.999924
14 139.999924 -0.000119 0.000119 -0.428406 -1.914952 2.051795 139.999924
[Rope3_Seg04]
13 139.999924 0.000119 0.000000 -0.732438 -3.062666 1.178992 139.999924
14 139.999924 0.000119 0.000000 -0.468434 -2.542004 0.897561 139.999924
[Rope3_Seg05]
13 139.999924 -0.000238 0.000060 -0.388191 -1.942436 1.403167 139.999924
14 139.999924 -0.000238 0.000060 -0.230099 -1.801262 1.212194 139.999924
[Rope3_Seg06]
13 139.999893 -0.000119 -0.000060 0.129920 0.537440 3.083837 139.999893
14 139.999893 -0.000119 -0.000060 0.075635 0.152720 3.528599 139.999893
[Rope3_Seg07]
13 139.999771 0.000060 -0.000119 0.418238 2.607283 5.029037 139.999771
14 139.999771 0.000060 -0.000119 0.068020 1.795943 6.124210 139.999771
[Rope3_Seg08]
13 139.999985 -0.000060 0.000000 0.188034 1.445361 3.788479 139.999985
14 139.999985 -0.000060 0.000000 -0.119128 0.936987 4.596622 139.999985
[Rope3_Seg09]
13 90.185997 -0.000179 -0.000060 89.793228 -1.359877 -0.847183 90.185997
14 90.185997 -0.000179 -0.000060 89.793228 -1.359877 -0.847183 90.185997
[R_rear_hand01]
13 103.366196 -6.073594 -10.757982 -165.129318 19.906286 -41.459824 104.101845
14 103.366196 -6.073594 -10.757982 -166.165070 20.624775 -44.436913 104.101845
[R_rear_hand02]
13 100.509819 12.039542 -7.992327 -30.361929 25.330688 39.162518 101.543350
14 100.509819 12.039542 -7.992327 -29.134800 26.762835 41.953510 101.543350
[R_rear_hand03]
13 101.539970 5.215704 5.435467 82.326164 -42.112484 9.027008 101.819031
14 101.539970 5.215704 5.435467 81.948608 -44.972134 9.574180 101.819031
[Rope4_Seg01]
13 0.000010 0.000026 -0.000106 41.447182 22.358349 -123.892067 0.000109
14 0.000010 0.000025 -0.000102 34.935356 24.569740 -135.141830 0.000105
[Rope4_Seg02]
13 139.999985 0.000060 0.000119 -6.465178 24.390123 -19.235733 139.999985
14 139.999985 0.000060 0.000119 -6.885019 24.923491 -12.263137 139.999985
[Rope4_Seg03]
13 139.999924 0.000000 -0.000238 0.534176 11.083080 -9.702417 139.999924
14 139.999924 0.000000 -0.000238 -0.091608 14.845487 -6.652305 139.999924
[Rope4_Seg04]
13 139.999985 0.000000 0.000119 1.028777 4.339621 -5.450378 139.999985
14 139.999985 0.000000 0.000119 1.140631 7.116139 -4.249603 139.999985
[Rope4_Seg05]
13 139.999802 -0.000060 -0.000119 0.541222 3.764709 -0.747559 139.999802
14 139.999802 -0.000060 -0.000119 0.801657 4.855327 -0.746500 139.999802
[Rope4_Seg06]
13 139.999924 0.000000 0.000060 0.368685 5.344749 1.816189 139.999924
14 139.999924 0.000000 0.000060 0.654437 5.665370 1.182877 139.999924
[Rope4_Seg07]
13 139.999802 0.000000 0.000000 0.202555 9.593571 5.291313 139.999802
14 139.999802 0.000000 0.000000 0.782316 8.058358 2.774032 139.999802
[Rope4_Seg08]
13 139.999924 0.000000 0.000119 -1.042413 8.060143 3.414339 139.999924
14 139.999924 0.000000 0.000119 -0.329322 6.091287 1.133177 139.999924
[Rope4_Seg09]
13 90.185791 0.000060 0.000060 -135.617828 2.228885 0.850567 90.185791
14 90.185791 0.000060 0.000060 -135.617828 2.228885 0.850567 90.185791
[L_rear_hand01]
13 101.696655 -8.392275 -7.654577 -23.837065 -31.497852 127.196877 102.329041
14 101.696655 -8.392275 -7.654577 -21.399742 -33.105404 122.636429 102.329041
[L_rear_hand02]
13 102.726799 -1.568258 5.773216 79.940979 55.428272 167.825531 102.900848
14 102.726799 -1.568258 5.773216 78.723869 59.531788 166.383698 102.900848
[L_rear_hand03]
13 104.552910 9.721220 -10.420293 -170.300186 -22.788525 -124.407036 105.519653
14 104.552910 9.721220 -10.420293 -172.062347 -23.429159 -119.922234 105.519653
